<?xml version="1.0" standalone="no"?>
<!DOCTYPE svg PUBLIC "-//W3C//DTD SVG 20010904//EN"
 "http://www.w3.org/TR/2001/REC-SVG-20010904/DTD/svg10.dtd">
<svg version="1.0" xmlns="http://www.w3.org/2000/svg"
 width="1283.000000pt" height="1283.000000pt" viewBox="0 0 1283.000000 1283.000000"
 preserveAspectRatio="xMidYMid meet">
<metadata>
Created by potrace 1.11, written by Peter Selinger 2001-2013
</metadata>
<g transform="translate(0.000000,1283.000000) scale(0.100000,-0.100000)"
fill="#000000" stroke="none">
<path d="M6437 11964 c-1 -1 -85 -4 -187 -8 -102 -3 -196 -8 -210 -10 -14 -2
-57 -7 -97 -11 -40 -3 -87 -8 -105 -10 -18 -2 -51 -6 -73 -9 -417 -53 -987
-198 -1320 -336 -258 -108 -349 -149 -500 -225 -178 -91 -329 -175 -435 -243
-423 -270 -717 -508 -1055 -852 -148 -151 -318 -347 -440 -510 -44 -58 -82
-107 -85 -110 -10 -8 -260 -387 -260 -394 0 -4 -12 -25 -27 -49 -103 -163
-282 -531 -386 -797 -102 -261 -222 -674 -263 -910 -2 -14 -9 -47 -14 -75 -19
-102 -37 -210 -44 -275 -3 -25 -8 -70 -12 -100 -3 -30 -7 -66 -9 -79 -27 -173
-27 -864 1 -1086 2 -22 6 -56 9 -75 10 -86 17 -141 31 -230 9 -52 18 -108 20
-125 41 -256 153 -661 264 -955 83 -218 234 -548 331 -720 126 -223 366 -592
434 -666 5 -6 21 -26 35 -44 176 -235 520 -600 750 -795 58 -50 124 -105 145
-124 49 -41 289 -221 330 -247 17 -10 32 -21 35 -25 7 -9 196 -131 255 -164
28 -16 57 -34 65 -41 43 -35 451 -243 609 -311 421 -180 919 -330 1294 -389
15 -2 39 -6 55 -9 15 -2 41 -6 58 -9 17 -2 64 -9 105 -15 41 -5 103 -13 139
-17 36 -3 72 -7 80 -9 137 -26 960 -26 1060 0 8 2 52 6 97 10 46 3 91 8 100 9
10 2 41 7 68 10 28 4 57 9 65 11 8 2 35 6 60 9 25 3 54 7 65 10 11 2 61 11
110 21 50 9 115 22 145 30 30 7 69 16 85 19 89 15 482 132 610 181 33 13 96
37 141 53 502 190 1031 497 1489 867 55 44 109 89 121 100 12 11 45 40 75 65
58 48 355 343 429 425 82 90 193 222 250 295 19 25 38 50 43 55 38 47 148 202
214 300 282 422 492 855 649 1335 43 131 121 403 130 458 3 15 10 47 15 72 6
25 12 54 15 65 2 11 8 43 14 70 13 61 16 77 25 135 4 25 9 52 10 60 2 13 15
98 20 140 1 8 5 44 9 80 4 36 9 79 11 95 27 232 27 966 0 1075 -2 8 -6 46 -10
83 -3 37 -8 76 -10 85 -1 9 -6 42 -10 72 -4 30 -9 64 -11 75 -2 11 -7 43 -10
70 -4 28 -8 53 -10 56 -2 4 -6 24 -9 45 -3 22 -8 45 -11 53 -2 8 -7 30 -10 50
-3 20 -15 72 -26 116 -11 44 -22 89 -24 100 -17 89 -105 370 -175 563 -45 122
-69 182 -132 327 -48 110 -227 456 -290 560 -37 61 -74 124 -84 140 -10 17
-20 32 -23 35 -3 3 -21 30 -40 60 -19 30 -38 60 -43 65 -4 6 -53 73 -109 150
-171 238 -283 367 -594 689 -47 48 -248 229 -330 297 -161 133 -179 147 -281
221 -488 355 -998 618 -1558 804 -257 84 -657 184 -840 209 -51 7 -122 18
-140 21 -11 2 -40 6 -65 9 -25 3 -61 7 -80 10 -19 2 -69 7 -110 10 -41 4 -88
8 -105 11 -50 6 -502 23 -508 18z"/>
</g>
</svg>
